<mxfile host="app.diagrams.net" modified="2021-03-12T04:08:15.366Z" agent="5.0 (Windows NT 10.0; Win64; x64) AppleWebKit/537.36 (KHTML, like Gecko) Chrome/89.0.4389.72 Safari/537.36 Edg/89.0.774.45" etag="_3CjpPqOVDp0NR-W45yZ" version="14.4.7" type="github">
  <diagram name="Page-1" id="74e2e168-ea6b-b213-b513-2b3c1d86103e">
    <mxGraphModel dx="1673" dy="1728" grid="1" gridSize="6" guides="1" tooltips="1" connect="1" arrows="1" fold="1" page="1" pageScale="1" pageWidth="1100" pageHeight="850" background="#ffffff" math="0" shadow="0">
      <root>
        <mxCell id="0" />
        <mxCell id="1" parent="0" />
        <mxCell id="CmSFOAhmEHpyUgrgbaQ9-9" style="edgeStyle=orthogonalEdgeStyle;rounded=0;orthogonalLoop=1;jettySize=auto;html=1;exitX=0.5;exitY=0;exitDx=0;exitDy=0;entryX=0.066;entryY=1.05;entryDx=0;entryDy=0;entryPerimeter=0;" parent="1" source="LJahTC6diqRqFsttiNx0-31" target="CmSFOAhmEHpyUgrgbaQ9-3" edge="1">
          <mxGeometry relative="1" as="geometry" />
        </mxCell>
        <mxCell id="LJahTC6diqRqFsttiNx0-31" value="&lt;b&gt;word_1&lt;/b&gt;" style="rounded=0;whiteSpace=wrap;html=1;strokeWidth=2;fillColor=#e1d5e7;strokeColor=#9673a6;" parent="1" vertex="1">
          <mxGeometry x="126" y="672" width="54" height="30" as="geometry" />
        </mxCell>
        <mxCell id="CmSFOAhmEHpyUgrgbaQ9-15" style="edgeStyle=orthogonalEdgeStyle;rounded=0;orthogonalLoop=1;jettySize=auto;html=1;exitX=0.5;exitY=0;exitDx=0;exitDy=0;entryX=0.288;entryY=1.05;entryDx=0;entryDy=0;entryPerimeter=0;" parent="1" source="LJahTC6diqRqFsttiNx0-32" target="CmSFOAhmEHpyUgrgbaQ9-3" edge="1">
          <mxGeometry relative="1" as="geometry" />
        </mxCell>
        <mxCell id="LJahTC6diqRqFsttiNx0-32" value="&lt;b&gt;word_2&lt;/b&gt;" style="rounded=0;whiteSpace=wrap;html=1;strokeWidth=2;fillColor=#e1d5e7;strokeColor=#9673a6;" parent="1" vertex="1">
          <mxGeometry x="198" y="672" width="54" height="30" as="geometry" />
        </mxCell>
        <mxCell id="CmSFOAhmEHpyUgrgbaQ9-11" style="edgeStyle=orthogonalEdgeStyle;rounded=0;orthogonalLoop=1;jettySize=auto;html=1;exitX=0.5;exitY=0;exitDx=0;exitDy=0;entryX=0.66;entryY=1.026;entryDx=0;entryDy=0;entryPerimeter=0;" parent="1" source="LJahTC6diqRqFsttiNx0-33" target="CmSFOAhmEHpyUgrgbaQ9-3" edge="1">
          <mxGeometry relative="1" as="geometry" />
        </mxCell>
        <mxCell id="LJahTC6diqRqFsttiNx0-33" value="&lt;b&gt;word_3&lt;/b&gt;" style="rounded=0;whiteSpace=wrap;html=1;strokeWidth=2;fillColor=#e1d5e7;strokeColor=#9673a6;" parent="1" vertex="1">
          <mxGeometry x="318" y="672" width="54" height="30" as="geometry" />
        </mxCell>
        <mxCell id="CmSFOAhmEHpyUgrgbaQ9-12" style="edgeStyle=orthogonalEdgeStyle;rounded=0;orthogonalLoop=1;jettySize=auto;html=1;exitX=0.5;exitY=0;exitDx=0;exitDy=0;entryX=0.953;entryY=0.998;entryDx=0;entryDy=0;entryPerimeter=0;" parent="1" source="LJahTC6diqRqFsttiNx0-34" target="CmSFOAhmEHpyUgrgbaQ9-3" edge="1">
          <mxGeometry relative="1" as="geometry" />
        </mxCell>
        <mxCell id="LJahTC6diqRqFsttiNx0-34" value="&lt;b&gt;word_n&lt;/b&gt;" style="rounded=0;whiteSpace=wrap;html=1;strokeWidth=2;fillColor=#e1d5e7;strokeColor=#9673a6;" parent="1" vertex="1">
          <mxGeometry x="414" y="672" width="54" height="30" as="geometry" />
        </mxCell>
        <mxCell id="LJahTC6diqRqFsttiNx0-38" value="" style="endArrow=none;dashed=1;html=1;dashPattern=1 3;strokeWidth=3;fillColor=#e1d5e7;strokeColor=#9673a6;endSize=12;startSize=12;" parent="1" edge="1">
          <mxGeometry width="50" height="50" relative="1" as="geometry">
            <mxPoint x="366" y="660" as="sourcePoint" />
            <mxPoint x="426" y="660" as="targetPoint" />
          </mxGeometry>
        </mxCell>
        <mxCell id="CmSFOAhmEHpyUgrgbaQ9-8" style="edgeStyle=orthogonalEdgeStyle;rounded=0;orthogonalLoop=1;jettySize=auto;html=1;exitX=0.5;exitY=0;exitDx=0;exitDy=0;entryX=0.512;entryY=1.033;entryDx=0;entryDy=0;entryPerimeter=0;" parent="1" source="LJahTC6diqRqFsttiNx0-42" target="CmSFOAhmEHpyUgrgbaQ9-4" edge="1">
          <mxGeometry relative="1" as="geometry" />
        </mxCell>
        <mxCell id="LJahTC6diqRqFsttiNx0-42" value="&lt;b&gt;Sequential 1D CNN&lt;br&gt;&lt;/b&gt;" style="rounded=1;whiteSpace=wrap;html=1;strokeWidth=2;fillColor=#dae8fc;strokeColor=#6c8ebf;" parent="1" vertex="1">
          <mxGeometry x="234" y="450" width="120" height="60" as="geometry" />
        </mxCell>
        <mxCell id="CmSFOAhmEHpyUgrgbaQ9-38" style="edgeStyle=orthogonalEdgeStyle;rounded=0;orthogonalLoop=1;jettySize=auto;html=1;exitX=0.5;exitY=0;exitDx=0;exitDy=0;entryX=0.5;entryY=1;entryDx=0;entryDy=0;" parent="1" source="LJahTC6diqRqFsttiNx0-48" target="LJahTC6diqRqFsttiNx0-95" edge="1">
          <mxGeometry relative="1" as="geometry" />
        </mxCell>
        <mxCell id="LJahTC6diqRqFsttiNx0-48" value="&lt;table border=&quot;1&quot; width=&quot;100%&quot; style=&quot;width: 100% ; height: 100% ; border-collapse: collapse&quot;&gt;&lt;tbody&gt;&lt;tr&gt;&lt;td align=&quot;center&quot;&gt;&lt;/td&gt;&lt;td align=&quot;center&quot;&gt;&lt;br&gt;&lt;/td&gt;&lt;td align=&quot;center&quot;&gt;&lt;/td&gt;&lt;td&gt;&lt;br&gt;&lt;/td&gt;&lt;/tr&gt;&lt;tr&gt;&lt;td align=&quot;center&quot;&gt;&lt;br&gt;&lt;/td&gt;&lt;td align=&quot;center&quot;&gt;&lt;/td&gt;&lt;td align=&quot;center&quot;&gt;&lt;/td&gt;&lt;td&gt;&lt;br&gt;&lt;/td&gt;&lt;/tr&gt;&lt;tr&gt;&lt;td align=&quot;center&quot;&gt;&lt;/td&gt;&lt;td align=&quot;center&quot;&gt;&lt;/td&gt;&lt;td align=&quot;center&quot;&gt;&lt;br&gt;&lt;/td&gt;&lt;td&gt;&lt;br&gt;&lt;/td&gt;&lt;/tr&gt;&lt;/tbody&gt;&lt;/table&gt;" style="text;html=1;strokeColor=#d6b656;fillColor=#fff2cc;overflow=fill;strokeWidth=2;verticalAlign=bottom;" parent="1" vertex="1">
          <mxGeometry x="472.5" y="198" width="69" height="54" as="geometry" />
        </mxCell>
        <mxCell id="CmSFOAhmEHpyUgrgbaQ9-46" style="edgeStyle=orthogonalEdgeStyle;rounded=0;orthogonalLoop=1;jettySize=auto;html=1;exitX=0.5;exitY=0;exitDx=0;exitDy=0;entryX=0.5;entryY=1;entryDx=0;entryDy=0;" parent="1" source="LJahTC6diqRqFsttiNx0-55" target="LJahTC6diqRqFsttiNx0-88" edge="1">
          <mxGeometry relative="1" as="geometry" />
        </mxCell>
        <mxCell id="LJahTC6diqRqFsttiNx0-55" value="&lt;b&gt;Coordinating&lt;br&gt;Sequential 1D CNN&lt;br&gt;Sub-Model&lt;/b&gt;" style="rounded=1;whiteSpace=wrap;html=1;strokeWidth=2;fillColor=#dae8fc;strokeColor=#6c8ebf;" parent="1" vertex="1">
          <mxGeometry x="447" y="-67" width="120" height="60" as="geometry" />
        </mxCell>
        <mxCell id="CmSFOAhmEHpyUgrgbaQ9-48" style="edgeStyle=orthogonalEdgeStyle;rounded=0;orthogonalLoop=1;jettySize=auto;html=1;exitX=0.5;exitY=0;exitDx=0;exitDy=0;entryX=0.5;entryY=1;entryDx=0;entryDy=0;" parent="1" source="LJahTC6diqRqFsttiNx0-88" target="LJahTC6diqRqFsttiNx0-90" edge="1">
          <mxGeometry relative="1" as="geometry" />
        </mxCell>
        <mxCell id="LJahTC6diqRqFsttiNx0-88" value="&lt;table border=&quot;1&quot; width=&quot;100%&quot; style=&quot;width: 100% ; height: 100% ; border-collapse: collapse&quot;&gt;&lt;tbody&gt;&lt;tr&gt;&lt;td align=&quot;center&quot;&gt;&lt;br&gt;&lt;/td&gt;&lt;td align=&quot;center&quot;&gt;&lt;br&gt;&lt;/td&gt;&lt;td align=&quot;center&quot;&gt;&lt;/td&gt;&lt;td&gt;&lt;br&gt;&lt;/td&gt;&lt;/tr&gt;&lt;/tbody&gt;&lt;/table&gt;" style="text;html=1;overflow=fill;fillColor=#1ba1e2;strokeWidth=2;strokeColor=#006EAF;fontColor=#ffffff;" parent="1" vertex="1">
          <mxGeometry x="453" y="-126" width="108" height="30" as="geometry" />
        </mxCell>
        <mxCell id="CmSFOAhmEHpyUgrgbaQ9-49" style="edgeStyle=orthogonalEdgeStyle;rounded=0;orthogonalLoop=1;jettySize=auto;html=1;exitX=0.5;exitY=0;exitDx=0;exitDy=0;entryX=0.5;entryY=1;entryDx=0;entryDy=0;" parent="1" source="LJahTC6diqRqFsttiNx0-90" target="LJahTC6diqRqFsttiNx0-92" edge="1">
          <mxGeometry relative="1" as="geometry" />
        </mxCell>
        <mxCell id="LJahTC6diqRqFsttiNx0-90" value="&lt;b&gt;Dense and&lt;br&gt;Softmax layer&lt;/b&gt;" style="rounded=1;whiteSpace=wrap;html=1;strokeWidth=2;fillColor=#dae8fc;strokeColor=#6c8ebf;" parent="1" vertex="1">
          <mxGeometry x="464" y="-195.75" width="86.5" height="42" as="geometry" />
        </mxCell>
        <mxCell id="LJahTC6diqRqFsttiNx0-92" value="&lt;b&gt;word(N)&lt;/b&gt;" style="rounded=0;whiteSpace=wrap;html=1;strokeWidth=2;fillColor=#d0cee2;strokeColor=#56517e;" parent="1" vertex="1">
          <mxGeometry x="474.25" y="-252" width="66" height="30" as="geometry" />
        </mxCell>
        <mxCell id="CmSFOAhmEHpyUgrgbaQ9-40" style="edgeStyle=orthogonalEdgeStyle;rounded=0;orthogonalLoop=1;jettySize=auto;html=1;exitX=0.5;exitY=0;exitDx=0;exitDy=0;entryX=0.5;entryY=1;entryDx=0;entryDy=0;" parent="1" source="LJahTC6diqRqFsttiNx0-95" target="CmSFOAhmEHpyUgrgbaQ9-39" edge="1">
          <mxGeometry relative="1" as="geometry" />
        </mxCell>
        <mxCell id="LJahTC6diqRqFsttiNx0-95" value="&lt;b&gt;&lt;font style=&quot;font-size: 14px&quot;&gt;Multi-headed &lt;br&gt;Self-Attention&lt;/font&gt;&lt;/b&gt;" style="rounded=1;whiteSpace=wrap;html=1;strokeWidth=2;fillColor=#cdeb8b;strokeColor=#36393d;fontSize=15;" parent="1" vertex="1">
          <mxGeometry x="438" y="102" width="138" height="68" as="geometry" />
        </mxCell>
        <mxCell id="LJahTC6diqRqFsttiNx0-109" value="" style="strokeWidth=2;html=1;shape=mxgraph.flowchart.annotation_1;align=left;pointerEvents=1;fillColor=#ffffff;gradientColor=#ffffff;rotation=-180;" parent="1" vertex="1">
          <mxGeometry x="588" y="-144" width="6" height="70.25" as="geometry" />
        </mxCell>
        <mxCell id="LJahTC6diqRqFsttiNx0-116" value="&lt;b&gt;Flattened Coordination vector&lt;/b&gt;" style="text;html=1;strokeColor=none;fillColor=none;align=center;verticalAlign=middle;whiteSpace=wrap;rounded=0;" parent="1" vertex="1">
          <mxGeometry x="622" y="-121.25" width="40" height="20" as="geometry" />
        </mxCell>
        <mxCell id="CmSFOAhmEHpyUgrgbaQ9-6" style="edgeStyle=orthogonalEdgeStyle;rounded=0;orthogonalLoop=1;jettySize=auto;html=1;exitX=0.5;exitY=0;exitDx=0;exitDy=0;" parent="1" source="CmSFOAhmEHpyUgrgbaQ9-3" target="LJahTC6diqRqFsttiNx0-42" edge="1">
          <mxGeometry relative="1" as="geometry" />
        </mxCell>
        <mxCell id="CmSFOAhmEHpyUgrgbaQ9-3" value="&lt;b&gt;Character Embedding&lt;br&gt;&lt;/b&gt;" style="rounded=1;whiteSpace=wrap;html=1;strokeWidth=2;fillColor=#fad9d5;strokeColor=#ae4132;" parent="1" vertex="1">
          <mxGeometry x="132" y="555" width="324" height="60" as="geometry" />
        </mxCell>
        <mxCell id="CmSFOAhmEHpyUgrgbaQ9-4" value="&lt;b&gt;Word Embedding&lt;br&gt;&lt;/b&gt;" style="rounded=1;whiteSpace=wrap;html=1;strokeWidth=2;fillColor=#fad9d5;strokeColor=#ae4132;" parent="1" vertex="1">
          <mxGeometry x="128" y="342" width="324" height="60" as="geometry" />
        </mxCell>
        <mxCell id="CmSFOAhmEHpyUgrgbaQ9-13" value="" style="endArrow=none;dashed=1;html=1;dashPattern=1 3;strokeWidth=2;entryX=0.087;entryY=1.005;entryDx=0;entryDy=0;entryPerimeter=0;" parent="1" edge="1">
          <mxGeometry width="50" height="50" relative="1" as="geometry">
            <mxPoint x="152" y="554" as="sourcePoint" />
            <mxPoint x="152.188" y="401.29999999999995" as="targetPoint" />
          </mxGeometry>
        </mxCell>
        <mxCell id="CmSFOAhmEHpyUgrgbaQ9-14" value="" style="endArrow=none;dashed=1;html=1;dashPattern=1 3;strokeWidth=2;entryX=0.087;entryY=1.005;entryDx=0;entryDy=0;entryPerimeter=0;" parent="1" edge="1">
          <mxGeometry width="50" height="50" relative="1" as="geometry">
            <mxPoint x="224.70999999999998" y="555" as="sourcePoint" />
            <mxPoint x="224.89799999999997" y="402.29999999999995" as="targetPoint" />
          </mxGeometry>
        </mxCell>
        <mxCell id="CmSFOAhmEHpyUgrgbaQ9-16" value="" style="endArrow=none;dashed=1;html=1;dashPattern=1 3;strokeWidth=2;entryX=0.087;entryY=1.005;entryDx=0;entryDy=0;entryPerimeter=0;" parent="1" edge="1">
          <mxGeometry width="50" height="50" relative="1" as="geometry">
            <mxPoint x="438" y="554.7" as="sourcePoint" />
            <mxPoint x="438.1879999999999" y="401.99999999999994" as="targetPoint" />
          </mxGeometry>
        </mxCell>
        <mxCell id="CmSFOAhmEHpyUgrgbaQ9-17" style="edgeStyle=orthogonalEdgeStyle;rounded=0;orthogonalLoop=1;jettySize=auto;html=1;exitX=0.5;exitY=0;exitDx=0;exitDy=0;entryX=0.066;entryY=1.05;entryDx=0;entryDy=0;entryPerimeter=0;" parent="1" source="CmSFOAhmEHpyUgrgbaQ9-18" target="CmSFOAhmEHpyUgrgbaQ9-29" edge="1">
          <mxGeometry relative="1" as="geometry" />
        </mxCell>
        <mxCell id="CmSFOAhmEHpyUgrgbaQ9-18" value="&lt;b&gt;word_1&lt;/b&gt;" style="rounded=0;whiteSpace=wrap;html=1;strokeWidth=2;fillColor=#e1d5e7;strokeColor=#9673a6;" parent="1" vertex="1">
          <mxGeometry x="576" y="674" width="54" height="30" as="geometry" />
        </mxCell>
        <mxCell id="CmSFOAhmEHpyUgrgbaQ9-19" style="edgeStyle=orthogonalEdgeStyle;rounded=0;orthogonalLoop=1;jettySize=auto;html=1;exitX=0.5;exitY=0;exitDx=0;exitDy=0;entryX=0.288;entryY=1.05;entryDx=0;entryDy=0;entryPerimeter=0;" parent="1" source="CmSFOAhmEHpyUgrgbaQ9-20" target="CmSFOAhmEHpyUgrgbaQ9-29" edge="1">
          <mxGeometry relative="1" as="geometry" />
        </mxCell>
        <mxCell id="CmSFOAhmEHpyUgrgbaQ9-20" value="&lt;b&gt;word_2&lt;/b&gt;" style="rounded=0;whiteSpace=wrap;html=1;strokeWidth=2;fillColor=#e1d5e7;strokeColor=#9673a6;" parent="1" vertex="1">
          <mxGeometry x="648" y="674" width="54" height="30" as="geometry" />
        </mxCell>
        <mxCell id="CmSFOAhmEHpyUgrgbaQ9-21" style="edgeStyle=orthogonalEdgeStyle;rounded=0;orthogonalLoop=1;jettySize=auto;html=1;exitX=0.5;exitY=0;exitDx=0;exitDy=0;entryX=0.66;entryY=1.026;entryDx=0;entryDy=0;entryPerimeter=0;" parent="1" source="CmSFOAhmEHpyUgrgbaQ9-22" target="CmSFOAhmEHpyUgrgbaQ9-29" edge="1">
          <mxGeometry relative="1" as="geometry" />
        </mxCell>
        <mxCell id="CmSFOAhmEHpyUgrgbaQ9-22" value="&lt;b&gt;word_3&lt;/b&gt;" style="rounded=0;whiteSpace=wrap;html=1;strokeWidth=2;fillColor=#e1d5e7;strokeColor=#9673a6;" parent="1" vertex="1">
          <mxGeometry x="768" y="674" width="54" height="30" as="geometry" />
        </mxCell>
        <mxCell id="CmSFOAhmEHpyUgrgbaQ9-23" style="edgeStyle=orthogonalEdgeStyle;rounded=0;orthogonalLoop=1;jettySize=auto;html=1;exitX=0.5;exitY=0;exitDx=0;exitDy=0;entryX=0.953;entryY=0.998;entryDx=0;entryDy=0;entryPerimeter=0;" parent="1" source="CmSFOAhmEHpyUgrgbaQ9-24" target="CmSFOAhmEHpyUgrgbaQ9-29" edge="1">
          <mxGeometry relative="1" as="geometry" />
        </mxCell>
        <mxCell id="CmSFOAhmEHpyUgrgbaQ9-24" value="&lt;b&gt;partial&lt;br&gt;word_n&lt;/b&gt;" style="rounded=0;whiteSpace=wrap;html=1;strokeWidth=2;fillColor=#e1d5e7;strokeColor=#9673a6;" parent="1" vertex="1">
          <mxGeometry x="864" y="674" width="54" height="30" as="geometry" />
        </mxCell>
        <mxCell id="CmSFOAhmEHpyUgrgbaQ9-25" value="" style="endArrow=none;dashed=1;html=1;dashPattern=1 3;strokeWidth=3;fillColor=#e1d5e7;strokeColor=#9673a6;endSize=12;startSize=12;" parent="1" edge="1">
          <mxGeometry width="50" height="50" relative="1" as="geometry">
            <mxPoint x="816" y="662" as="sourcePoint" />
            <mxPoint x="876" y="662" as="targetPoint" />
          </mxGeometry>
        </mxCell>
        <mxCell id="CmSFOAhmEHpyUgrgbaQ9-26" style="edgeStyle=orthogonalEdgeStyle;rounded=0;orthogonalLoop=1;jettySize=auto;html=1;exitX=0.5;exitY=0;exitDx=0;exitDy=0;entryX=0.512;entryY=1.033;entryDx=0;entryDy=0;entryPerimeter=0;" parent="1" source="CmSFOAhmEHpyUgrgbaQ9-27" target="CmSFOAhmEHpyUgrgbaQ9-30" edge="1">
          <mxGeometry relative="1" as="geometry" />
        </mxCell>
        <mxCell id="CmSFOAhmEHpyUgrgbaQ9-27" value="&lt;b&gt;Sequential 1D CNN&lt;br&gt;&lt;/b&gt;" style="rounded=1;whiteSpace=wrap;html=1;strokeWidth=2;fillColor=#dae8fc;strokeColor=#6c8ebf;" parent="1" vertex="1">
          <mxGeometry x="684" y="452" width="120" height="60" as="geometry" />
        </mxCell>
        <mxCell id="CmSFOAhmEHpyUgrgbaQ9-28" style="edgeStyle=orthogonalEdgeStyle;rounded=0;orthogonalLoop=1;jettySize=auto;html=1;exitX=0.5;exitY=0;exitDx=0;exitDy=0;" parent="1" source="CmSFOAhmEHpyUgrgbaQ9-29" target="CmSFOAhmEHpyUgrgbaQ9-27" edge="1">
          <mxGeometry relative="1" as="geometry" />
        </mxCell>
        <mxCell id="CmSFOAhmEHpyUgrgbaQ9-29" value="&lt;b&gt;Character Embedding&lt;br&gt;&lt;/b&gt;" style="rounded=1;whiteSpace=wrap;html=1;strokeWidth=2;fillColor=#fad9d5;strokeColor=#ae4132;" parent="1" vertex="1">
          <mxGeometry x="582" y="557" width="324" height="60" as="geometry" />
        </mxCell>
        <mxCell id="CmSFOAhmEHpyUgrgbaQ9-30" value="&lt;b&gt;Word Embedding&lt;br&gt;&lt;/b&gt;" style="rounded=1;whiteSpace=wrap;html=1;strokeWidth=2;fillColor=#fad9d5;strokeColor=#ae4132;" parent="1" vertex="1">
          <mxGeometry x="578" y="344" width="324" height="60" as="geometry" />
        </mxCell>
        <mxCell id="CmSFOAhmEHpyUgrgbaQ9-31" value="" style="endArrow=none;dashed=1;html=1;dashPattern=1 3;strokeWidth=2;entryX=0.087;entryY=1.005;entryDx=0;entryDy=0;entryPerimeter=0;" parent="1" edge="1">
          <mxGeometry width="50" height="50" relative="1" as="geometry">
            <mxPoint x="602" y="556.0000000000002" as="sourcePoint" />
            <mxPoint x="602.1880000000001" y="403.2999999999997" as="targetPoint" />
          </mxGeometry>
        </mxCell>
        <mxCell id="CmSFOAhmEHpyUgrgbaQ9-32" value="" style="endArrow=none;dashed=1;html=1;dashPattern=1 3;strokeWidth=2;entryX=0.087;entryY=1.005;entryDx=0;entryDy=0;entryPerimeter=0;" parent="1" edge="1">
          <mxGeometry width="50" height="50" relative="1" as="geometry">
            <mxPoint x="674.71" y="557" as="sourcePoint" />
            <mxPoint x="674.8979999999999" y="404.29999999999995" as="targetPoint" />
          </mxGeometry>
        </mxCell>
        <mxCell id="CmSFOAhmEHpyUgrgbaQ9-33" value="" style="endArrow=none;dashed=1;html=1;dashPattern=1 3;strokeWidth=2;entryX=0.087;entryY=1.005;entryDx=0;entryDy=0;entryPerimeter=0;" parent="1" edge="1">
          <mxGeometry width="50" height="50" relative="1" as="geometry">
            <mxPoint x="887.9999999999998" y="556.7" as="sourcePoint" />
            <mxPoint x="888.1880000000001" y="404" as="targetPoint" />
          </mxGeometry>
        </mxCell>
        <mxCell id="CmSFOAhmEHpyUgrgbaQ9-34" value="" style="endArrow=classic;html=1;entryX=0;entryY=1;entryDx=0;entryDy=0;" parent="1" target="LJahTC6diqRqFsttiNx0-48" edge="1">
          <mxGeometry width="50" height="50" relative="1" as="geometry">
            <mxPoint x="288" y="342" as="sourcePoint" />
            <mxPoint x="338" y="292" as="targetPoint" />
          </mxGeometry>
        </mxCell>
        <mxCell id="CmSFOAhmEHpyUgrgbaQ9-35" value="" style="endArrow=classic;html=1;entryX=1;entryY=1;entryDx=0;entryDy=0;" parent="1" target="LJahTC6diqRqFsttiNx0-48" edge="1">
          <mxGeometry width="50" height="50" relative="1" as="geometry">
            <mxPoint x="744" y="342" as="sourcePoint" />
            <mxPoint x="696" y="292" as="targetPoint" />
          </mxGeometry>
        </mxCell>
        <mxCell id="CmSFOAhmEHpyUgrgbaQ9-41" value="" style="edgeStyle=orthogonalEdgeStyle;rounded=0;orthogonalLoop=1;jettySize=auto;html=1;" parent="1" source="CmSFOAhmEHpyUgrgbaQ9-39" target="LJahTC6diqRqFsttiNx0-55" edge="1">
          <mxGeometry relative="1" as="geometry" />
        </mxCell>
        <mxCell id="CmSFOAhmEHpyUgrgbaQ9-39" value="&lt;table border=&quot;1&quot; width=&quot;100%&quot; style=&quot;width: 100% ; height: 100% ; border-collapse: collapse&quot;&gt;&lt;tbody&gt;&lt;tr&gt;&lt;td align=&quot;center&quot;&gt;&lt;/td&gt;&lt;td align=&quot;center&quot;&gt;&lt;br&gt;&lt;/td&gt;&lt;td align=&quot;center&quot;&gt;&lt;/td&gt;&lt;td&gt;&lt;br&gt;&lt;/td&gt;&lt;/tr&gt;&lt;tr&gt;&lt;td align=&quot;center&quot;&gt;&lt;br&gt;&lt;/td&gt;&lt;td align=&quot;center&quot;&gt;&lt;/td&gt;&lt;td align=&quot;center&quot;&gt;&lt;/td&gt;&lt;td&gt;&lt;br&gt;&lt;/td&gt;&lt;/tr&gt;&lt;tr&gt;&lt;td align=&quot;center&quot;&gt;&lt;/td&gt;&lt;td align=&quot;center&quot;&gt;&lt;/td&gt;&lt;td align=&quot;center&quot;&gt;&lt;br&gt;&lt;/td&gt;&lt;td&gt;&lt;br&gt;&lt;/td&gt;&lt;/tr&gt;&lt;/tbody&gt;&lt;/table&gt;" style="text;html=1;strokeColor=#d6b656;fillColor=#fff2cc;overflow=fill;strokeWidth=2;verticalAlign=bottom;" parent="1" vertex="1">
          <mxGeometry x="472.5" y="19" width="69" height="55" as="geometry" />
        </mxCell>
        <mxCell id="CmSFOAhmEHpyUgrgbaQ9-42" value="&lt;b&gt;&lt;font style=&quot;font-size: 14px&quot;&gt;Sentence 1&lt;/font&gt;&lt;/b&gt;" style="rounded=1;whiteSpace=wrap;html=1;fillColor=#e1d5e7;strokeColor=#9673a6;" parent="1" vertex="1">
          <mxGeometry x="126" y="726" width="342" height="30" as="geometry" />
        </mxCell>
        <mxCell id="CmSFOAhmEHpyUgrgbaQ9-43" value="&lt;b&gt;&lt;font style=&quot;font-size: 14px&quot;&gt;Sentence 2&lt;/font&gt;&lt;/b&gt;" style="rounded=1;whiteSpace=wrap;html=1;fillColor=#e1d5e7;strokeColor=#9673a6;" parent="1" vertex="1">
          <mxGeometry x="578" y="726" width="342" height="30" as="geometry" />
        </mxCell>
        <mxCell id="CmSFOAhmEHpyUgrgbaQ9-44" value="" style="strokeWidth=2;html=1;shape=mxgraph.flowchart.annotation_1;align=left;pointerEvents=1;rotation=-180;" parent="1" vertex="1">
          <mxGeometry x="588" y="176" width="8" height="82" as="geometry" />
        </mxCell>
        <mxCell id="CmSFOAhmEHpyUgrgbaQ9-45" value="&lt;b&gt;Concatenation of CNN vectors&lt;/b&gt;" style="text;html=1;strokeColor=none;fillColor=none;align=center;verticalAlign=middle;whiteSpace=wrap;rounded=0;" parent="1" vertex="1">
          <mxGeometry x="597" y="218" width="148" height="20" as="geometry" />
        </mxCell>
      </root>
    </mxGraphModel>
  </diagram>
</mxfile>
